<svg xmlns="http://www.w3.org/2000/svg">

<symbol width="24" height="24" id="arrow-down-24" viewBox="0 0 24 24">

<path d="M10.59 16L6.00002 11.41C5.81377 11.2227 5.70923 10.9692 5.70923 10.705C5.70923 10.4408 5.81377 10.1874 6.00002 10C6.18738 9.81377 6.44084 9.70923 6.70502 9.70923C6.96921 9.70923 7.22266 9.81377 7.41002 10L11.29 13.88C11.383 13.9737 11.4936 14.0481 11.6154 14.0989C11.7373 14.1497 11.868 14.1758 12 14.1758C12.132 14.1758 12.2627 14.1497 12.3846 14.0989C12.5065 14.0481 12.6171 13.9737 12.71 13.88L16.59 10C16.7774 9.81377 17.0308 9.70923 17.295 9.70923C17.5592 9.70923 17.8127 9.81377 18 10C18.1863 10.1874 18.2908 10.4408 18.2908 10.705C18.2908 10.9692 18.1863 11.2227 18 11.41L13.41 16C13.0353 16.3725 12.5284 16.5816 12 16.5816C11.4716 16.5816 10.9647 16.3725 10.59 16Z" fill="currentColor"/>

</symbol>

<symbol width="24" height="24" id="arrow-up-24" viewBox="0 0 24 24">

<path d="M13.41 8.29002L18 12.88C18.1863 13.0674 18.2908 13.3208 18.2908 13.585C18.2908 13.8492 18.1863 14.1027 18 14.29C17.8127 14.4763 17.5592 14.5808 17.295 14.5808C17.0308 14.5808 16.7774 14.4763 16.59 14.29L12.71 10.41C12.6171 10.3163 12.5065 10.2419 12.3846 10.1911C12.2627 10.1404 12.132 10.1142 12 10.1142C11.868 10.1142 11.7373 10.1404 11.6154 10.1911C11.4936 10.2419 11.383 10.3163 11.29 10.41L7.41002 14.29C7.22266 14.4763 6.96921 14.5808 6.70502 14.5808C6.44084 14.5808 6.18738 14.4763 6.00002 14.29C5.81377 14.1027 5.70923 13.8492 5.70923 13.585C5.70923 13.3208 5.81377 13.0674 6.00002 12.88L10.59 8.29002C10.9647 7.91752 11.4716 7.70844 12 7.70844C12.5284 7.70844 13.0353 7.91752 13.41 8.29002Z" fill="currentColor"/>

</symbol>

<symbol width="24" height="24" id="arrow-back-24"  viewBox="0 0 24 24">

<path d="M4.58999 10.59L9.17999 6.00001C9.37129 5.83618 9.61737 5.75058 9.86904 5.7603C10.1207 5.77002 10.3595 5.87435 10.5376 6.05245C10.7156 6.23054 10.82 6.46928 10.8297 6.72096C10.8394 6.97263 10.7538 7.21871 10.59 7.41001L6.99999 11H19.1C19.3652 11 19.6196 11.1054 19.8071 11.2929C19.9946 11.4804 20.1 11.7348 20.1 12C20.1 12.2652 19.9946 12.5196 19.8071 12.7071C19.6196 12.8947 19.3652 13 19.1 13H6.99999L10.6 16.59C10.7862 16.7774 10.8908 17.0308 10.8908 17.295C10.8908 17.5592 10.7862 17.8126 10.6 18C10.4137 18.1848 10.1623 18.2889 9.89999 18.29C9.76671 18.2921 9.63435 18.2675 9.51071 18.2177C9.38706 18.1679 9.27462 18.0939 9.17999 18L4.58999 13.42C4.40404 13.2343 4.25652 13.0137 4.15587 12.7709C4.05522 12.5281 4.00342 12.2678 4.00342 12.005C4.00342 11.7422 4.05522 11.4819 4.15587 11.2391C4.25652 10.9963 4.40404 10.7758 4.58999 10.59Z" fill="currentColor"/>

</symbol>

<symbol width="24" height="24" id="checkmark-24" viewBox="0 0 24 24">

<path d="M9.94997 17C9.12997 17.78 7.80997 17.72 7.06997 16.87L4.25997 13.66C3.89997 13.24 3.93997 12.61 4.34997 12.25C4.75997 11.89 5.38997 11.93 5.75997 12.34L7.88997 14.77C8.25997 15.2 8.91997 15.23 9.32997 14.84L18.32 6.28001C18.72 5.90001 19.35 5.91001 19.73 6.31001C20.11 6.71001 20.1 7.34001 19.69 7.72001L9.94997 17Z" fill="currentColor"/>

</symbol>

<symbol width="24" height="24" id="close-24" viewBox="0 0 24 24">

<path d="M13.4199 12L16.9999 15.58C17.0936 15.673 17.168 15.7836 17.2188 15.9054C17.2696 16.0273 17.2957 16.158 17.2957 16.29C17.2957 16.422 17.2696 16.5527 17.2188 16.6746C17.168 16.7965 17.0936 16.9071 16.9999 17C16.9069 17.0938 16.7963 17.1681 16.6745 17.2189C16.5526 17.2697 16.4219 17.2958 16.2899 17.2958C16.1579 17.2958 16.0272 17.2697 15.9053 17.2189C15.7835 17.1681 15.6729 17.0938 15.5799 17L11.9999 13.42L8.4199 17C8.32694 17.0938 8.21634 17.1681 8.09448 17.2189C7.97262 17.2697 7.84191 17.2958 7.7099 17.2958C7.57789 17.2958 7.44718 17.2697 7.32532 17.2189C7.20346 17.1681 7.09286 17.0938 6.9999 17C6.90617 16.9071 6.83178 16.7965 6.78101 16.6746C6.73024 16.5527 6.7041 16.422 6.7041 16.29C6.7041 16.158 6.73024 16.0273 6.78101 15.9054C6.83178 15.7836 6.90617 15.673 6.9999 15.58L10.5799 12L6.9999 8.42002C6.90617 8.32706 6.83178 8.21646 6.78101 8.0946C6.73024 7.97274 6.7041 7.84203 6.7041 7.71002C6.7041 7.57801 6.73024 7.4473 6.78101 7.32545C6.83178 7.20359 6.90617 7.09298 6.9999 7.00002C7.09286 6.90629 7.20346 6.8319 7.32532 6.78113C7.44718 6.73036 7.57789 6.70422 7.7099 6.70422C7.84191 6.70422 7.97262 6.73036 8.09448 6.78113C8.21634 6.8319 8.32694 6.90629 8.4199 7.00002L11.9999 10.58L15.5799 7.00002C15.6729 6.90629 15.7835 6.8319 15.9053 6.78113C16.0272 6.73036 16.1579 6.70422 16.2899 6.70422C16.4219 6.70422 16.5526 6.73036 16.6745 6.78113C16.7963 6.8319 16.9069 6.90629 16.9999 7.00002C17.0936 7.09298 17.168 7.20359 17.2188 7.32545C17.2696 7.4473 17.2957 7.57801 17.2957 7.71002C17.2957 7.84203 17.2696 7.97274 17.2188 8.0946C17.168 8.21646 17.0936 8.32706 16.9999 8.42002L13.4199 12Z" fill="currentColor"/>

</symbol>

<symbol width="20" height="20" id="arrow-down-20" viewBox="0 0 20 20">

<path d="M8.59002 12.85L5.00002 9.27C4.90629 9.17703 4.8319 9.06643 4.78113 8.94457C4.73036 8.82271 4.70422 8.69201 4.70422 8.56C4.70422 8.42799 4.73036 8.29728 4.78113 8.17542C4.8319 8.05356 4.90629 7.94296 5.00002 7.85C5.18738 7.66375 5.44084 7.5592 5.70502 7.5592C5.96921 7.5592 6.22266 7.66375 6.41002 7.85L9.29002 10.73C9.38299 10.8237 9.49359 10.8981 9.61545 10.9489C9.7373 10.9997 9.86801 11.0258 10 11.0258C10.132 11.0258 10.2627 10.9997 10.3846 10.9489C10.5065 10.8981 10.6171 10.8237 10.71 10.73L13.59 7.85C13.7774 7.66375 14.0308 7.5592 14.295 7.5592C14.5592 7.5592 14.8127 7.66375 15 7.85C15.0938 7.94296 15.1681 8.05356 15.2189 8.17542C15.2697 8.29728 15.2958 8.42799 15.2958 8.56C15.2958 8.69201 15.2697 8.82271 15.2189 8.94457C15.1681 9.06643 15.0938 9.17703 15 9.27L11.41 12.85C11.0353 13.2225 10.5284 13.4316 10 13.4316C9.47165 13.4316 8.96475 13.2225 8.59002 12.85Z" fill="currentColor"/>

</symbol>

<symbol width="20" height="20" id="arrow-up-20" viewBox="0 0 20 20">

<path d="M11.41 7.15001L15 10.73C15.0938 10.823 15.1681 10.9336 15.2189 11.0554C15.2697 11.1773 15.2958 11.308 15.2958 11.44C15.2958 11.572 15.2697 11.7027 15.2189 11.8246C15.1681 11.9464 15.0938 12.057 15 12.15C14.8127 12.3363 14.5592 12.4408 14.295 12.4408C14.0308 12.4408 13.7774 12.3363 13.59 12.15L10.71 9.27001C10.6171 9.17628 10.5065 9.10188 10.3846 9.05111C10.2627 9.00035 10.132 8.97421 10 8.97421C9.86801 8.97421 9.7373 9.00035 9.61545 9.05111C9.49359 9.10188 9.38299 9.17628 9.29002 9.27001L6.41002 12.15C6.22266 12.3363 5.96921 12.4408 5.70502 12.4408C5.44084 12.4408 5.18738 12.3363 5.00002 12.15C4.90629 12.057 4.8319 11.9464 4.78113 11.8246C4.73036 11.7027 4.70422 11.572 4.70422 11.44C4.70422 11.308 4.73036 11.1773 4.78113 11.0554C4.8319 10.9336 4.90629 10.823 5.00002 10.73L8.59002 7.15001C8.96475 6.7775 9.47165 6.56842 10 6.56842C10.5284 6.56842 11.0353 6.7775 11.41 7.15001Z" fill="currentColor"/>

</symbol>

<symbol width="20" height="20" id="arrow-back-20" viewBox="0 0 20 20">

<path d="M4.54995 8.59L8.12995 5C8.2196 4.89531 8.32992 4.81029 8.45398 4.75027C8.57805 4.69025 8.71318 4.65652 8.8509 4.6512C8.98862 4.64588 9.12595 4.66908 9.25428 4.71936C9.3826 4.76963 9.49915 4.84589 9.5966 4.94334C9.69406 5.0408 9.77032 5.15735 9.82059 5.28567C9.87086 5.414 9.89407 5.55133 9.88875 5.68905C9.88343 5.82677 9.8497 5.9619 9.78968 6.08597C9.72965 6.21003 9.64463 6.32035 9.53995 6.40999L6.99995 9H15C15.2652 9 15.5195 9.10535 15.7071 9.29289C15.8946 9.48042 16 9.73478 16 10C16 10.2652 15.8946 10.5196 15.7071 10.7071C15.5195 10.8946 15.2652 11 15 11H6.99995L9.58995 13.59C9.7762 13.7774 9.88074 14.0308 9.88074 14.295C9.88074 14.5592 9.7762 14.8126 9.58995 15C9.40369 15.1847 9.15229 15.2889 8.88995 15.29C8.75002 15.2976 8.61006 15.2757 8.47913 15.2258C8.34821 15.1758 8.22924 15.0989 8.12995 15L4.54995 11.42C4.364 11.2342 4.21648 11.0137 4.11583 10.7709C4.01518 10.5281 3.96338 10.2678 3.96338 10.005C3.96338 9.74216 4.01518 9.48191 4.11583 9.23911C4.21648 8.99632 4.364 8.77574 4.54995 8.59Z" fill="currentColor"/>

</symbol>

<symbol width="20" height="20" id="checkmark-20" viewBox="0 0 20 20">

<path d="M8.96995 14C8.12995 14.78 6.80995 14.7 6.06995 13.83L4.23995 11.66C3.87995 11.24 3.91995 10.61 4.32995 10.25C4.73995 9.89001 5.36995 9.93001 5.73995 10.34L6.87995 11.73C7.24995 12.18 7.90995 12.22 8.33995 11.83L14.2999 6.28001C14.6999 5.90001 15.3299 5.91001 15.7099 6.31001C16.0899 6.71001 16.0799 7.34001 15.6699 7.72001L8.94995 14H8.96995Z" fill="currentColor"/>

</symbol>

<symbol width="20" height="20" id="close-20" viewBox="0 0 20 20">

<path d="M11.42 10L14 12.58C14.0938 12.673 14.1681 12.7836 14.2189 12.9054C14.2697 13.0273 14.2958 13.158 14.2958 13.29C14.2958 13.422 14.2697 13.5527 14.2189 13.6746C14.1681 13.7965 14.0938 13.9071 14 14C13.9071 14.0938 13.7965 14.1681 13.6746 14.2189C13.5527 14.2697 13.422 14.2958 13.29 14.2958C13.158 14.2958 13.0273 14.2697 12.9054 14.2189C12.7836 14.1681 12.673 14.0938 12.58 14L10 11.42L7.42002 14C7.32706 14.0938 7.21646 14.1681 7.0946 14.2189C6.97274 14.2697 6.84203 14.2958 6.71002 14.2958C6.57801 14.2958 6.4473 14.2697 6.32545 14.2189C6.20359 14.1681 6.09298 14.0938 6.00002 14C5.90629 13.9071 5.8319 13.7965 5.78113 13.6746C5.73036 13.5527 5.70422 13.422 5.70422 13.29C5.70422 13.158 5.73036 13.0273 5.78113 12.9054C5.8319 12.7836 5.90629 12.673 6.00002 12.58L8.58002 10L6.00002 7.42002C5.90629 7.32706 5.8319 7.21646 5.78113 7.0946C5.73036 6.97274 5.70422 6.84203 5.70422 6.71002C5.70422 6.57801 5.73036 6.4473 5.78113 6.32545C5.8319 6.20359 5.90629 6.09298 6.00002 6.00002C6.09298 5.90629 6.20359 5.8319 6.32545 5.78113C6.4473 5.73036 6.57801 5.70422 6.71002 5.70422C6.84203 5.70422 6.97274 5.73036 7.0946 5.78113C7.21646 5.8319 7.32706 5.90629 7.42002 6.00002L10 8.58002L12.58 6.00002C12.673 5.90629 12.7836 5.8319 12.9054 5.78113C13.0273 5.73036 13.158 5.70422 13.29 5.70422C13.422 5.70422 13.5527 5.73036 13.6746 5.78113C13.7965 5.8319 13.9071 5.90629 14 6.00002C14.0938 6.09298 14.1681 6.20359 14.2189 6.32545C14.2697 6.4473 14.2958 6.57801 14.2958 6.71002C14.2958 6.84203 14.2697 6.97274 14.2189 7.0946C14.1681 7.21646 14.0938 7.32706 14 7.42002L11.42 10Z" fill="currentColor"/>

</symbol>

</svg>